<mxfile host="app.diagrams.net" modified="2023-11-07T17:52:04.663Z" agent="Mozilla/5.0 (Windows NT 10.0; Win64; x64) AppleWebKit/537.36 (KHTML, like Gecko) Chrome/119.0.0.0 Safari/537.36 Edg/119.0.0.0" version="22.0.8" etag="Gu7R47azMe8WNSabICc1" type="github">
  <diagram name="Page-1" id="Kj1KzhOaU2OwonWhJCzk">
    <mxGraphModel>
      <root>
        <mxCell id="0" />
        <mxCell id="1" parent="0" />
      </root>
    </mxGraphModel>
  </diagram>
</mxfile>
